<svg id="Layer_1" data-name="Layer 1" xmlns="http://www.w3.org/2000/svg" xmlns:xlink="http://www.w3.org/1999/xlink" viewBox="0 0 302.85 111.01"><defs><style>.cls-1{fill:#2c23a8;}.cls-2{fill:#009b37;}.cls-3{opacity:0.71;}.cls-4{fill:#93278f;}</style><symbol id="Photo" data-name="Photo" viewBox="0 0 66 52.26"><path class="cls-1" d="M57.91,8.45,53.79,2.67A6.73,6.73,0,0,0,48.59,0H42.5a6.73,6.73,0,0,0-5.2,2.67l-4,5.59H10a10,10,0,0,0-10,10v24a10,10,0,0,0,10,10H56a10,10,0,0,0,10-10v-24A10,10,0,0,0,57.91,8.45ZM41.37,5.58a1.83,1.83,0,0,1,.52-.38A1.78,1.78,0,0,1,42.5,5h6.09a1.78,1.78,0,0,1,.61.2,1.83,1.83,0,0,1,.52.38l1.91,2.68H39.46ZM31,44.17A14.24,14.24,0,1,1,45.22,29.93,14.26,14.26,0,0,1,31,44.17ZM6,42.26v-24a4.05,4.05,0,0,1,4-4h6.69a21.19,21.19,0,0,0,.71,32H10A4.06,4.06,0,0,1,6,42.26Zm54,0a4.06,4.06,0,0,1-4,4H44.56a21.19,21.19,0,0,0,.71-32H56a4.05,4.05,0,0,1,4,4Z"/></symbol></defs><title>logo_remake</title><path d="M419.1,432.39a13.41,13.41,0,0,0-1.08-3.24,3.44,3.44,0,0,0-2.73-1.58,3.72,3.72,0,0,0-2.09.36,15.45,15.45,0,0,1-2.09.86l-25.05,6.41a5.34,5.34,0,0,1-1.8,0,4.7,4.7,0,0,0-1.88.07c-1.87.58-3,1.42-3.38,2.52q-.36,1.36,2.52,5.22t4.54,4.29a1.87,1.87,0,0,0,1.4-.4,4.22,4.22,0,0,1,1.19-.61l5.11-1.3v35.64a7.12,7.12,0,0,1-.94,2.74c-.72,1.44-.74,2.59-.07,3.45q.87,1,5.62,2.09a33.35,33.35,0,0,0,6.62.94,2.31,2.31,0,0,0,.72-.07c.63-.39,1.08-1.33,1.37-2.81a5.4,5.4,0,0,0,.14-2.74,12,12,0,0,1-1-4.53V441.82l7.41-2a2.69,2.69,0,0,1,1.66.32,4.15,4.15,0,0,0,1.58.47c1.44-.05,2.29-.35,2.56-.9a5.86,5.86,0,0,0,.39-2.41A20.12,20.12,0,0,0,419.1,432.39Z" transform="translate(-351.15 -394.97)"/><path d="M435.94,462.37c.18.51-.06.93-.72,1.25s-1,.4-1.51.62q-4.15,4.61-11.26,12.43,0,7.63.07,7.87c0,.16.21.57.49,1.23a4.09,4.09,0,0,1,.43,1.56c0,.6-.37,1-1.12,1.25a6.8,6.8,0,0,1-2,.24,21.54,21.54,0,0,1-5.53-.82q-3.82-1-3.82-2.45a3.35,3.35,0,0,1,.53-1.39,3.51,3.51,0,0,0,.52-1.58v-19q-.72-2.69-.72-2.79c0-1,.61-1.61,1.84-1.87a11.49,11.49,0,0,1,1.91-.14,22.6,22.6,0,0,1,4.84.55c1.69.37,2.69.76,3,1.18a.78.78,0,0,1,.13.48,13.88,13.88,0,0,1-.92,2.3v2.3c1.06-1.37,2.09-2.75,3.1-4.12,1.36-1.73,2.37-2.64,3-2.74q1.45-.2,4.41,1.25C434.63,460.93,435.72,461.73,435.94,462.37Z" transform="translate(-351.15 -394.97)"/><path d="M449.72,486.85c.19,1.15-.4,1.87-1.75,2.16a7.94,7.94,0,0,1-1,.05,33,33,0,0,1-6.22-.73q-4-.76-4.68-1.63c-.23-.25,0-.75.63-1.48a4.11,4.11,0,0,0,.63-2.64V462.42a7.8,7.8,0,0,1-.84-2.45c0-.42.86-.63,2.59-.63a27.16,27.16,0,0,1,5.83.89q3.75.88,4.51,1.56a.63.63,0,0,1,.21.48,3.37,3.37,0,0,1-.8,1.44,3.18,3.18,0,0,0-.81,1.59v19.29q0,.48.81,1.2A2.78,2.78,0,0,1,449.72,486.85Zm.21-33.17a.66.66,0,0,1,.07.38,8.22,8.22,0,0,1-.63,2.74c-.47,1.22-.91,1.89-1.33,2s-2.47-.22-6-1-5.43-1.4-5.66-1.75a1.07,1.07,0,0,1-.21-.72,4.93,4.93,0,0,1,1-2.73,3.77,3.77,0,0,1,2.52-1.83,17.72,17.72,0,0,1,5.59.84Q449.23,452.63,449.93,453.68Z" transform="translate(-351.15 -394.97)"/><path d="M469.52,494.06a3,3,0,0,1-1.2.27q-1.65,0-5.5-3.38l0,10.62a6.87,6.87,0,0,0,.56,1.58,4.78,4.78,0,0,1,.5,1.68c0,.77-.6,1.15-1.78,1.14a20.24,20.24,0,0,1-4.62-.78c-1.23-.34-2.45-.69-3.67-1.07a2.18,2.18,0,0,1-1.84-1.71,4.68,4.68,0,0,1,.49-2.14,12,12,0,0,0,.61-1.82l.15-35.83a5.23,5.23,0,0,0-.31-2.31c-.63-.92-.82-1.56-.56-1.93s.72-.44,1.65-.43a28,28,0,0,1,4.37.51c2.23.41,3.44.62,3.61.62a2.05,2.05,0,0,1,1.64,1.33,3,3,0,0,1,.06.77,44.25,44.25,0,0,1-.79,6.71q1.53-2.64,3.07-5.22,2-3.35,3.75-3.06,12.4,2.31,12.36,13.48a24.25,24.25,0,0,1-3.95,12.72Q474.17,492.22,469.52,494.06Zm-1.28-25.6q-2.28-.22-5.22,19.85,3.56-1.37,6.46-6a16.82,16.82,0,0,0,2.92-8.68Q472.42,468.92,468.24,468.46Z" transform="translate(-351.15 -394.97)"/><path class="cls-2" d="M504.69,486.75a1.71,1.71,0,0,1-.58,1.15,1.43,1.43,0,0,1-1.2.39q-6-.82-6.62-2.26a.77.77,0,0,1-.1-.38.88.88,0,0,1,.22-.53,1.41,1.41,0,0,0,.26-.5,1.09,1.09,0,0,1,.19-.41,7.45,7.45,0,0,0,.05-1.68,9.75,9.75,0,0,0-1.73,2.3,12.11,12.11,0,0,1-2.11,2.88,5,5,0,0,1-3.5,1.44,3.52,3.52,0,0,1-2.26-.91,23.89,23.89,0,0,1-1.87-1.87c-1.54-1.73-2.37-2.67-2.5-2.83a4.35,4.35,0,0,1-1-2.55,3.46,3.46,0,0,1,.1-.77q.92-4.22,5.66-8a54.19,54.19,0,0,1,9.8-5.81c0-1-.26-1.68-.77-2q-.48-.29-3.36,1.08a20.19,20.19,0,0,0-4,2.33,15.68,15.68,0,0,1-1.25,1.06,1.87,1.87,0,0,1-1.49.28,8.87,8.87,0,0,1-2.26-1.72,7.43,7.43,0,0,1-1.87-2.12,1.62,1.62,0,0,1,.82-2s.67-.23,1.92-.58l3.55-1.92a18,18,0,0,1,6.34-1.92,3.8,3.8,0,0,1,2.49,1.15q1.25,1.11,2.52,2.19c.85.72,1.72,1.41,2.62,2.08a3.69,3.69,0,0,1,1.53,2.6v18.14A4.68,4.68,0,0,1,504.69,486.75Zm-7.68-14a10.29,10.29,0,0,0-4,2.78c-.83,1-1.66,2-2.49,3a11.9,11.9,0,0,0-1.9,2.62,5.78,5.78,0,0,0-.89,2.38c0,.25.1.38.29.38.67,0,2.18-1.45,4.51-4.34A31.07,31.07,0,0,0,497,472.74Z" transform="translate(-351.15 -394.97)"/><path class="cls-2" d="M531.18,450.9a4.78,4.78,0,0,1-.36,1.87,11.92,11.92,0,0,0-.46,1.58v31.3a4.79,4.79,0,0,0,.24,2c.48.83.63,1.39.44,1.68s-.58.38-1.25.38a19.43,19.43,0,0,1-3.36-.43c-1.7-.36-2.59-.53-2.69-.53a1.54,1.54,0,0,1-1.25-1.15,2.24,2.24,0,0,1,0-.63,48,48,0,0,1,.53-5.85c-.76,1.53-1.52,3.07-2.25,4.61-1.06,1.88-2,2.75-2.84,2.59q-9.45-1.92-9.45-11.62a24,24,0,0,1,3-11.23q2.93-5.52,6.43-7.2a2.07,2.07,0,0,1,.92-.24q1.2,0,4.17,3v-9.32a6.5,6.5,0,0,0-.43-1.36,4.47,4.47,0,0,1-.38-1.47c0-.67.44-1,1.34-1a13.29,13.29,0,0,1,3.46.68c1,.32,1.9.62,2.83.91A1.76,1.76,0,0,1,531.18,450.9Zm-8.35,12.38c-1.79.8-3.42,2.56-4.87,5.28a16.19,16.19,0,0,0-2.19,7.58q0,4.08,3.17,4.47Q520.62,480.81,522.83,463.28Z" transform="translate(-351.15 -394.97)"/><path class="cls-2" d="M557.72,461.31a124.57,124.57,0,0,0-4.27,14.54q-2.16,8.83-2.11,10v2.35c0,1-.42,1.61-1.15,1.78s-2.47-.18-5.21-.92-4.26-1.33-4.58-1.77a2,2,0,0,1-.24-1.06,2.92,2.92,0,0,0-.1-.91q-2.2-7-3.22-11.42a89.83,89.83,0,0,1-1.72-12.1c0-.1,0-.37-.1-.82a5.54,5.54,0,0,1-.1-.86,1.37,1.37,0,0,1,1-1.44,13.62,13.62,0,0,1,3.7.65c2.18.53,3.36,1,3.55,1.41a1.48,1.48,0,0,1,.15.68,3.62,3.62,0,0,1-.29,1.22,3.76,3.76,0,0,0-.29,1q.52,3.75,1,6.63c.77,4.61,1.37,7.34,1.82,8.21q.72-4.19,2.55-10.85.85-3.22,1.77-6.43c.1-.58.19-1.16.29-1.73a1.73,1.73,0,0,1,1.2-1.2c.38-.13,1.41.16,3.07.86C556.24,459.92,557.34,460.64,557.72,461.31Z" transform="translate(-351.15 -394.97)"/><path class="cls-2" d="M570.92,486.85a1.76,1.76,0,0,1-1.2,2.16,3.73,3.73,0,0,1-.67.05,15.91,15.91,0,0,1-4.27-.73c-1.82-.51-2.9-1.05-3.22-1.63-.16-.25,0-.75.44-1.48a5.72,5.72,0,0,0,.43-2.64V462.42a10.25,10.25,0,0,1-.58-2.45c0-.42.59-.63,1.78-.63a13.41,13.41,0,0,1,4,.89,7.66,7.66,0,0,1,3.09,1.56.76.76,0,0,1,.15.48,4,4,0,0,1-.56,1.44,4.06,4.06,0,0,0-.55,1.59v19.29a2.22,2.22,0,0,0,.55,1.2A2.74,2.74,0,0,1,570.92,486.85Zm.15-33.17a1,1,0,0,1,0,.38,11.47,11.47,0,0,1-.44,2.74c-.32,1.22-.62,1.89-.91,2s-1.69-.22-4.13-1-3.72-1.4-3.88-1.75a1.38,1.38,0,0,1-.15-.72,6.59,6.59,0,0,1,.67-2.73c.52-1.09,1.09-1.7,1.73-1.83a8.65,8.65,0,0,1,3.84.84C569.68,452.28,570.75,453,571.07,453.68Z" transform="translate(-351.15 -394.97)"/><path class="cls-2" d="M592,483.06a5.41,5.41,0,0,1-1.75,4.22,7.28,7.28,0,0,1-4.92,1.63,6.66,6.66,0,0,1-1.68-.24c-1.09-.29-1.66-.45-1.73-.48-.57-.13-1.16-.26-1.75-.41a3.63,3.63,0,0,1-1.51-.74,11.7,11.7,0,0,1-2.06-2.64c-.55-.9-1.08-1.81-1.59-2.74a6.14,6.14,0,0,1-.77-1.68c0-.44.32-.78,1-1a2.48,2.48,0,0,1,.87-.1,26.15,26.15,0,0,1,3.62.31,7.57,7.57,0,0,1,2.38.53,11.76,11.76,0,0,1,.53,2.76c.19,1.47.52,2.21,1,2.21.74,0,1.11-1,1.11-3q0-3.79-2-4.75-4.61-2.16-6.05-3.84-1.77-2.07-1.77-6.24a10,10,0,0,1,1.44-5.16,5.64,5.64,0,0,1,3.41-2.9c.57-.13,2.43.48,5.56,1.82.29.1,1.14.27,2.55.53a3.64,3.64,0,0,1,2.11,1,6,6,0,0,1,1.06,3.5c0,1.18,0,2.37,0,3.55a15.93,15.93,0,0,1,.34,1.92,1.38,1.38,0,0,1-1.3,1.54,7.61,7.61,0,0,1-2.64-.53,5.85,5.85,0,0,1-2.73-1.49,20.39,20.39,0,0,1-.29-3.6c-.1-2.14-.32-3.22-.67-3.22s-.93.63-1.35,1.88a12.37,12.37,0,0,0-.62,3.89c0,1.69.37,2.76,1.1,3.21q2.36,1.31,4.68,2.62a9.07,9.07,0,0,1,3.24,2.71A8.82,8.82,0,0,1,592,483.06Z" transform="translate(-351.15 -394.97)"/><path class="cls-2" d="M654,462.37a1.08,1.08,0,0,1-.53,1.25c-.38.19-.75.4-1.1.62q-3,4.61-8.21,12.43,0,7.63,0,7.87t.36,1.23a5.35,5.35,0,0,1,.31,1.56,1.25,1.25,0,0,1-.82,1.25,3.71,3.71,0,0,1-1.44.24,11.85,11.85,0,0,1-4-.82c-1.85-.64-2.78-1.46-2.78-2.45a4.48,4.48,0,0,1,.38-1.39,4.44,4.44,0,0,0,.39-1.58v-19c-.36-1.79-.53-2.72-.53-2.79a1.75,1.75,0,0,1,1.34-1.87,6.24,6.24,0,0,1,1.4-.14,12.24,12.24,0,0,1,3.52.55c1.23.37,2,.76,2.19,1.18a1.08,1.08,0,0,1,.09.48,17.61,17.61,0,0,1-.67,2.3v2.3c.77-1.37,1.52-2.75,2.26-4.12,1-1.73,1.73-2.64,2.21-2.74.7-.13,1.77.29,3.21,1.25S653.8,461.73,654,462.37Z" transform="translate(-351.15 -394.97)"/><g id="Add_Favorite_2" data-name="Add Favorite 2"><g class="cls-3"><path class="cls-4" d="M386.58,455.1c-16.59-8.35-26.09-16.78-28.25-25.1l-.46-2.81c-.44-6.83,3.36-10.35,6.05-11.05.73-.19,1.43-.34,2.07-.44,3.93-.64,5.76.27,9.61,3.51l6,5.05,4.11-6.69c2.63-4.28,4.08-5.72,8-6.35a20.65,20.65,0,0,1,2.11-.23c2.77-.18,7.48,2,9.21,8.58l.46,2.82v.15l1.42,6.51,4.8-.78a24.63,24.63,0,0,0,.43-6.68l-.54-3.36c-2.47-10-10.16-14.14-16.17-13.74a27.44,27.44,0,0,0-2.76.3c-6.83,1.1-9.65,4.51-12.7,9.47-4.46-3.75-8.2-6.1-15-5a27.13,27.13,0,0,0-2.71.58c-5.82,1.51-11.82,7.89-11,18.13l.54,3.36c2.34,9.54,11.77,20.26,36.1,31.68q3.34-3.16,6.14-6.12l-.7-4.35-5,.81C387.72,453.94,387.16,454.51,386.58,455.1Z" transform="translate(-351.15 -394.97)"/></g><g id="Info"><use width="66" height="52.26" transform="matrix(0.62, 0, 0, 0.67, 241.74, 59.17)" xlink:href="#Photo"/><text x="-351.15" y="-394.97"/><g id="Minus"><g id="To_Do" data-name="To Do"><polygon points="122.97 69.99 122.97 69.99 122.95 69.98 122.97 69.99"/></g></g></g></g><text x="-351.15" y="-394.97"/><text x="-351.15" y="-394.97"/></svg>