<svg id="Layer_1" data-name="Layer 1" xmlns="http://www.w3.org/2000/svg" xmlns:xlink="http://www.w3.org/1999/xlink" viewBox="0 0 320.65 112.14"><defs><style>.cls-1{fill:#2c23a8;}.cls-2{fill:none;}.cls-3{fill:#009b37;}.cls-4{opacity:0.71;}.cls-5{fill:#93278f;}</style><symbol id="Photo" data-name="Photo" viewBox="0 0 66 52.26"><path class="cls-1" d="M57.91,8.45,53.79,2.67A6.73,6.73,0,0,0,48.59,0H42.5a6.73,6.73,0,0,0-5.2,2.67l-4,5.59H10a10,10,0,0,0-10,10v24a10,10,0,0,0,10,10H56a10,10,0,0,0,10-10v-24A10,10,0,0,0,57.91,8.45ZM41.37,5.58a1.83,1.83,0,0,1,.52-.38A1.78,1.78,0,0,1,42.5,5h6.09a1.78,1.78,0,0,1,.61.2,1.83,1.83,0,0,1,.52.38l1.91,2.68H39.46ZM31,44.17A14.24,14.24,0,1,1,45.22,29.93,14.26,14.26,0,0,1,31,44.17ZM6,42.26v-24a4.05,4.05,0,0,1,4-4h6.69a21.19,21.19,0,0,0,.71,32H10A4.06,4.06,0,0,1,6,42.26Zm54,0a4.06,4.06,0,0,1-4,4H44.56a21.19,21.19,0,0,0,.71-32H56a4.05,4.05,0,0,1,4,4Z"/></symbol></defs><title>logo</title><g id="Add_Favorite_2" data-name="Add Favorite 2"><g id="Info"><use width="66" height="52.26" transform="matrix(0.62, 0, 0, 0.67, 259.54, 59.92)" xlink:href="#Photo"/><text x="-333.35" y="-394.22"/><g id="Minus"><g id="To_Do" data-name="To Do"><path class="cls-2" d="M518,468.56a16.19,16.19,0,0,0-2.19,7.58q0,4.08,3.17,4.47,1.68.19,3.89-17.33C521,464.08,519.41,465.84,518,468.56Z" transform="translate(-333.35 -394.22)"/><path class="cls-2" d="M468.24,468.46q-2.28-.22-5.22,19.85,3.56-1.37,6.46-6a16.82,16.82,0,0,0,2.92-8.68Q472.42,468.92,468.24,468.46Z" transform="translate(-333.35 -394.22)"/><path class="cls-2" d="M490.48,478.54a11.9,11.9,0,0,0-1.9,2.62,5.78,5.78,0,0,0-.89,2.38c0,.25.1.38.29.38.67,0,2.18-1.45,4.51-4.34a31.07,31.07,0,0,0,4.52-6.84,10.29,10.29,0,0,0-4,2.78C492.14,476.54,491.31,477.55,490.48,478.54Z" transform="translate(-333.35 -394.22)"/><path d="M406.22,479.7V441.82l7.41-2a2.69,2.69,0,0,1,1.66.32,4.15,4.15,0,0,0,1.58.47c1.44-.05,2.29-.35,2.56-.9a5.86,5.86,0,0,0,.39-2.41,20.12,20.12,0,0,0-.72-4.9,13.41,13.41,0,0,0-1.08-3.24,3.44,3.44,0,0,0-2.73-1.58,3.72,3.72,0,0,0-2.09.36,15.45,15.45,0,0,1-2.09.86l-25.05,6.41a5.34,5.34,0,0,1-1.8,0,4.7,4.7,0,0,0-1.88.07c-1.87.58-3,1.42-3.38,2.52q-.36,1.36,2.52,5.22t4.54,4.29a1.87,1.87,0,0,0,1.4-.4,4.22,4.22,0,0,1,1.19-.61l5.11-1.3v35.64a7.12,7.12,0,0,1-.94,2.74c-.72,1.44-.74,2.59-.07,3.45a3.62,3.62,0,0,0,1.28.8l7.06-.85.33,2.73a23.11,23.11,0,0,0,3.57.35,2.31,2.31,0,0,0,.72-.07c.63-.39,1.08-1.33,1.37-2.81a5.4,5.4,0,0,0,.14-2.74A12,12,0,0,1,406.22,479.7Z" transform="translate(-333.35 -394.22)"/><path d="M432.65,460q-3-1.44-4.41-1.25c-.65.1-1.66,1-3,2.74-1,1.37-2,2.75-3.1,4.12v-2.3A13.88,13.88,0,0,0,423,461a.78.78,0,0,0-.13-.48c-.3-.42-1.3-.81-3-1.18a22.6,22.6,0,0,0-4.84-.55,11.49,11.49,0,0,0-1.91.14c-1.23.26-1.84.88-1.84,1.87q0,.11.72,2.79v19a3.51,3.51,0,0,1-.52,1.58,3.35,3.35,0,0,0-.53,1.39q0,1.49,3.82,2.45a21.54,21.54,0,0,0,5.53.82,6.8,6.8,0,0,0,2-.24c.75-.23,1.12-.65,1.12-1.25a4.09,4.09,0,0,0-.43-1.56c-.28-.66-.45-1.07-.49-1.23s-.07-2.78-.07-7.87q7.11-7.82,11.26-12.43c.48-.22,1-.43,1.51-.62s.9-.74.72-1.25S434.63,460.93,432.65,460Z" transform="translate(-333.35 -394.22)"/><path d="M448.85,485.79q-.81-.72-.81-1.2V465.3a3.18,3.18,0,0,1,.81-1.59,3.37,3.37,0,0,0,.8-1.44.63.63,0,0,0-.21-.48q-.76-.68-4.51-1.56a27.16,27.16,0,0,0-5.83-.89c-1.73,0-2.59.21-2.59.63a7.8,7.8,0,0,0,.84,2.45v20.16a4.11,4.11,0,0,1-.63,2.64c-.65.73-.86,1.23-.63,1.48q.71.87,4.68,1.63a33,33,0,0,0,6.22.73,7.94,7.94,0,0,0,1-.05c1.35-.29,1.94-1,1.75-2.16A2.78,2.78,0,0,0,448.85,485.79Z" transform="translate(-333.35 -394.22)"/><path d="M445.25,451.59a17.72,17.72,0,0,0-5.59-.84,3.77,3.77,0,0,0-2.52,1.83,4.93,4.93,0,0,0-1,2.73,1.07,1.07,0,0,0,.21.72c.23.35,2.12.94,5.66,1.75s5.55,1.16,6,1,.86-.8,1.33-2a8.22,8.22,0,0,0,.63-2.74.66.66,0,0,0-.07-.38Q449.23,452.63,445.25,451.59Z" transform="translate(-333.35 -394.22)"/><path d="M469.67,459.61q-1.71-.28-3.75,3.06-1.55,2.58-3.07,5.22a44.25,44.25,0,0,0,.79-6.71,3,3,0,0,0-.06-.77,2.05,2.05,0,0,0-1.64-1.33c-.17,0-1.38-.21-3.61-.62A28,28,0,0,0,454,458c-.93,0-1.48.14-1.65.43s-.07,1,.56,1.93a5.23,5.23,0,0,1,.31,2.31L453,498.45a12,12,0,0,1-.61,1.82,4.68,4.68,0,0,0-.49,2.14,2.18,2.18,0,0,0,1.84,1.71c1.22.38,2.44.73,3.67,1.07a20.24,20.24,0,0,0,4.62.78c1.18,0,1.78-.37,1.78-1.14a4.78,4.78,0,0,0-.5-1.68,6.87,6.87,0,0,1-.56-1.58l0-10.62q3.85,3.38,5.5,3.38a3,3,0,0,0,1.2-.27q4.64-1.85,8.56-8.25A24.25,24.25,0,0,0,482,473.09Q482.08,461.92,469.67,459.61Zm-.19,22.67q-2.91,4.67-6.46,6,2.94-20.07,5.22-19.85,4.17.46,4.16,5.14A16.82,16.82,0,0,1,469.48,482.28Z" transform="translate(-333.35 -394.22)"/><path class="cls-3" d="M504.25,466.93a3.69,3.69,0,0,0-1.53-2.6c-.9-.67-1.77-1.36-2.62-2.08s-1.69-1.45-2.52-2.19a3.8,3.8,0,0,0-2.49-1.15,18,18,0,0,0-6.34,1.92l-3.55,1.92c-1.25.35-1.89.55-1.92.58a1.62,1.62,0,0,0-.82,2,7.43,7.43,0,0,0,1.87,2.12,8.87,8.87,0,0,0,2.26,1.72,1.87,1.87,0,0,0,1.49-.28,15.68,15.68,0,0,0,1.25-1.06,20.19,20.19,0,0,1,4-2.33q2.88-1.36,3.36-1.08c.51.29.77.95.77,2a54.19,54.19,0,0,0-9.8,5.81q-4.74,3.8-5.66,8a3.46,3.46,0,0,0-.1.77,4.35,4.35,0,0,0,1,2.55c.13.16,1,1.1,2.5,2.83a23.89,23.89,0,0,0,1.87,1.87,3.52,3.52,0,0,0,2.26.91,5,5,0,0,0,3.5-1.44,12.11,12.11,0,0,0,2.11-2.88,9.75,9.75,0,0,1,1.73-2.3,7.45,7.45,0,0,1-.05,1.68,1.09,1.09,0,0,0-.19.41,1.41,1.41,0,0,1-.26.5.88.88,0,0,0-.22.53.77.77,0,0,0,.1.38q.66,1.44,6.62,2.26a1.43,1.43,0,0,0,1.2-.39,1.71,1.71,0,0,0,.58-1.15,4.68,4.68,0,0,0-.44-1.68Zm-11.76,12.65c-2.33,2.89-3.84,4.34-4.51,4.34-.19,0-.29-.13-.29-.38a5.78,5.78,0,0,1,.89-2.38,11.9,11.9,0,0,1,1.9-2.62c.83-1,1.66-2,2.49-3a10.29,10.29,0,0,1,4-2.78A31.07,31.07,0,0,1,492.49,479.58Z" transform="translate(-333.35 -394.22)"/><path class="cls-3" d="M530.82,452.77a4.78,4.78,0,0,0,.36-1.87,1.76,1.76,0,0,0-1.39-1.49c-.93-.29-1.87-.59-2.83-.91a13.29,13.29,0,0,0-3.46-.68c-.9,0-1.34.34-1.34,1a4.47,4.47,0,0,0,.38,1.47,6.5,6.5,0,0,1,.43,1.36V461q-3-3-4.17-3a2.07,2.07,0,0,0-.92.24q-3.5,1.68-6.43,7.2a24,24,0,0,0-3,11.23q0,9.7,9.45,11.62c.84.16,1.78-.71,2.84-2.59.73-1.54,1.49-3.08,2.25-4.61a48,48,0,0,0-.53,5.85,2.24,2.24,0,0,0,0,.63,1.54,1.54,0,0,0,1.25,1.15c.1,0,1,.17,2.69.53a19.43,19.43,0,0,0,3.36.43c.67,0,1.09-.13,1.25-.38s0-.85-.44-1.68a4.79,4.79,0,0,1-.24-2v-31.3A11.92,11.92,0,0,1,530.82,452.77Zm-11.88,27.84q-3.16-.39-3.17-4.47a16.19,16.19,0,0,1,2.19-7.58c1.45-2.72,3.08-4.48,4.87-5.28Q520.63,480.8,518.94,480.61Z" transform="translate(-333.35 -394.22)"/><path class="cls-3" d="M554.41,459.15c-1.66-.7-2.69-1-3.07-.86a1.73,1.73,0,0,0-1.2,1.2c-.1.57-.19,1.15-.29,1.73q-.92,3.21-1.77,6.43-1.83,6.68-2.55,10.85c-.45-.87-1-3.6-1.82-8.21q-.48-2.88-1-6.63a3.76,3.76,0,0,1,.29-1,3.62,3.62,0,0,0,.29-1.22,1.48,1.48,0,0,0-.15-.68c-.19-.41-1.37-.88-3.55-1.41a13.62,13.62,0,0,0-3.7-.65,1.37,1.37,0,0,0-1,1.44,5.54,5.54,0,0,0,.1.86c.06.45.1.72.1.82a89.83,89.83,0,0,0,1.72,12.1q1,4.41,3.22,11.42a2.92,2.92,0,0,1,.1.91,2,2,0,0,0,.24,1.06c.32.44,1.84,1,4.58,1.77s4.47,1,5.21.92,1.12-.76,1.15-1.78v-2.35q0-1.2,2.11-10a124.57,124.57,0,0,1,4.27-14.54C557.34,460.64,556.24,459.92,554.41,459.15Z" transform="translate(-333.35 -394.22)"/><path class="cls-3" d="M569.77,484.59V465.3a4.06,4.06,0,0,1,.55-1.59,4,4,0,0,0,.56-1.44.76.76,0,0,0-.15-.48,7.66,7.66,0,0,0-3.09-1.56,13.41,13.41,0,0,0-4-.89c-1.19,0-1.78.21-1.78.63a10.25,10.25,0,0,0,.58,2.45v20.16a5.72,5.72,0,0,1-.43,2.64c-.45.73-.6,1.23-.44,1.48.32.58,1.4,1.12,3.22,1.63a15.91,15.91,0,0,0,4.27.73,3.73,3.73,0,0,0,.67-.05,1.76,1.76,0,0,0,1.2-2.16,2.74,2.74,0,0,0-.6-1.06A2.22,2.22,0,0,1,569.77,484.59Z" transform="translate(-333.35 -394.22)"/><path class="cls-3" d="M567.85,451.59a8.65,8.65,0,0,0-3.84-.84c-.64.13-1.21.74-1.73,1.83a6.59,6.59,0,0,0-.67,2.73,1.38,1.38,0,0,0,.15.72c.16.35,1.45.94,3.88,1.75s3.81,1.16,4.13,1,.59-.8.91-2a11.47,11.47,0,0,0,.44-2.74,1,1,0,0,0,0-.38C570.75,453,569.68,452.28,567.85,451.59Z" transform="translate(-333.35 -394.22)"/><path class="cls-3" d="M587.6,475.45q-2.33-1.32-4.68-2.62c-.73-.45-1.1-1.52-1.1-3.21a12.37,12.37,0,0,1,.62-3.89c.42-1.25.87-1.88,1.35-1.88s.57,1.08.67,3.22a20.39,20.39,0,0,0,.29,3.6,5.85,5.85,0,0,0,2.73,1.49,7.61,7.61,0,0,0,2.64.53,1.38,1.38,0,0,0,1.3-1.54,15.93,15.93,0,0,0-.34-1.92c0-1.18,0-2.37,0-3.55a6,6,0,0,0-1.06-3.5,3.64,3.64,0,0,0-2.11-1c-1.41-.26-2.26-.43-2.55-.53-3.13-1.34-5-1.95-5.56-1.82a5.64,5.64,0,0,0-3.41,2.9,10,10,0,0,0-1.44,5.16q0,4.17,1.77,6.24,1.44,1.68,6.05,3.84,2,1,2,4.75c0,2-.37,3-1.11,3-.48,0-.81-.74-1-2.21a11.76,11.76,0,0,0-.53-2.76,7.57,7.57,0,0,0-2.38-.53,26.15,26.15,0,0,0-3.62-.31,2.48,2.48,0,0,0-.87.1c-.64.22-1,.56-1,1a6.14,6.14,0,0,0,.77,1.68c.51.93,1,1.84,1.59,2.74A11.7,11.7,0,0,0,578.7,487a3.63,3.63,0,0,0,1.51.74c.59.15,1.18.28,1.75.41.07,0,.64.19,1.73.48a6.66,6.66,0,0,0,1.68.24,7.28,7.28,0,0,0,4.92-1.63,5.41,5.41,0,0,0,1.75-4.22,8.82,8.82,0,0,0-1.2-4.9A9.07,9.07,0,0,0,587.6,475.45Z" transform="translate(-333.35 -394.22)"/><path class="cls-3" d="M654,462.37q-.24-1-2.4-2.4c-1.44-1-2.51-1.38-3.21-1.25-.48.1-1.22,1-2.21,2.74-.74,1.37-1.49,2.75-2.26,4.12v-2.3a17.61,17.61,0,0,0,.67-2.3,1.08,1.08,0,0,0-.09-.48c-.23-.42-1-.81-2.19-1.18a12.24,12.24,0,0,0-3.52-.55,6.24,6.24,0,0,0-1.4.14,1.75,1.75,0,0,0-1.34,1.87c0,.07.17,1,.53,2.79v19a4.44,4.44,0,0,1-.39,1.58,4.48,4.48,0,0,0-.38,1.39c0,1,.93,1.81,2.78,2.45a11.85,11.85,0,0,0,4,.82,3.71,3.71,0,0,0,1.44-.24,1.25,1.25,0,0,0,.82-1.25,5.35,5.35,0,0,0-.31-1.56q-.31-1-.36-1.23t0-7.87q5.19-7.82,8.21-12.43c.35-.22.72-.43,1.1-.62A1.08,1.08,0,0,0,654,462.37Z" transform="translate(-333.35 -394.22)"/><g class="cls-4"><path class="cls-5" d="M394,487.62l-1.11.14c-.92,1.05-1.83,2.1-2.79,3.16-26.71-18-41.91-35.35-45.23-51.65l-.67-5.49c-.54-13.23,5.7-19.59,10.08-20.63a29.92,29.92,0,0,1,3.38-.63c6.38-.78,9.32,1.18,15.49,7.87l9.62,10.43,6.84-12.44c4.38-8,6.77-10.58,13.15-11.36a32.69,32.69,0,0,1,3.43-.2c4.5,0,12.09,4.63,14.74,17.61l.67,5.49c0,.1,0,.2,0,.3l2.14,12.72,7.8-1a54.69,54.69,0,0,0,.86-12.84l-.8-6.56c-3.75-19.52-16.13-28.44-25.88-28.36a38.57,38.57,0,0,0-4.48.28c-11.12,1.35-15.77,7.6-20.84,16.83-7.14-7.74-13.16-12.69-24.27-11.34a40.51,40.51,0,0,0-4.42.81c-9.48,2.27-19.36,13.9-18.31,33.75l.79,6.56c3.56,18.68,18.59,40.44,57.79,65.25,3.67-3.82,7-7.53,10.11-11.13l-.7-5.73-.33-2.73Z" transform="translate(-333.35 -394.22)"/></g></g></g></g></g><text x="-333.35" y="-394.22"/><text x="-333.35" y="-394.22"/></svg>